<svg version="1.1" id="Layer_1" xmlns="http://www.w3.org/2000/svg" xmlns:xlink="http://www.w3.org/1999/xlink" x="0px" y="0px"
	 width="100%" viewBox="0 0 1080 1080" enable-background="new 0 0 1080 1080" xml:space="preserve">
<path fill="#000000" opacity="1.000000" stroke="none" 
	d="
M738.000000,1081.000000 
	C492.028320,1081.000000 246.556656,1081.000000 1.042494,1081.000000 
	C1.042494,721.069885 1.042494,361.139740 1.042494,1.104807 
	C360.888550,1.104807 720.777161,1.104807 1080.832886,1.104807 
	C1080.832886,360.999939 1080.832886,720.999939 1080.832886,1081.000000 
	C966.805969,1081.000000 852.653015,1081.000000 738.000000,1081.000000 
M678.408264,786.789368 
	C675.499329,787.402039 672.597961,788.053711 669.680176,788.620911 
	C655.760498,791.326721 641.782898,792.270020 627.782898,789.382568 
	C603.155884,784.303528 582.844788,771.181091 564.956726,754.246155 
	C553.166077,743.083740 543.415894,730.059509 535.019653,716.099426 
	C532.411743,711.763306 529.782959,707.439880 527.116272,703.032288 
	C525.894531,703.630432 524.914307,703.934265 524.141602,704.514465 
	C509.084503,715.820618 494.067322,727.179993 479.010406,738.486328 
	C449.015106,761.010071 418.980377,783.481262 389.006226,806.032959 
	C379.769592,812.982239 370.676575,820.122437 360.870575,827.128601 
	C344.862305,838.999023 328.854065,850.869385 312.840363,862.743835 
	C318.405396,871.538818 323.213470,880.432800 329.245087,888.400574 
	C341.852051,905.054260 354.285248,921.968323 368.347839,937.351013 
	C379.847015,949.929565 393.225677,960.905151 406.447418,971.768188 
	C429.316528,990.557495 455.218597,1004.415710 482.800140,1014.819458 
	C512.183411,1025.902832 542.791138,1032.529663 573.983887,1035.844116 
	C591.337769,1037.687988 608.845520,1038.529053 626.300903,1038.825684 
	C639.304382,1039.046631 652.356567,1037.943970 665.347412,1036.924927 
	C677.899475,1035.940308 690.573547,1035.179688 702.879944,1032.737915 
	C717.899597,1029.757446 732.770325,1025.692505 747.384766,1021.080383 
	C771.126953,1013.587585 793.293945,1002.569946 813.458008,987.902405 
	C823.316833,980.731079 832.556091,972.708008 842.664917,964.737183 
	C843.977966,963.742554 845.202393,962.594604 846.617493,961.776428 
	C867.125183,949.920227 885.151428,934.815002 901.925232,918.305542 
	C910.503540,909.862427 918.175659,900.378540 925.451782,890.755920 
	C944.067932,866.135925 957.678772,838.783569 968.150513,809.813416 
	C982.023132,771.434692 989.123413,731.683411 991.901978,691.109924 
	C992.775269,678.357361 992.931885,665.537720 992.953857,652.747925 
	C993.057312,592.582275 993.000000,532.416321 993.000000,472.250488 
	C993.000000,336.085693 992.992065,199.920898 993.038391,63.756126 
	C993.039795,59.717911 993.080383,56.875156 987.423889,56.887268 
	C908.758667,57.055676 830.093018,57.025097 751.427490,56.934925 
	C747.305054,56.930202 745.844360,58.250225 745.928223,62.406052 
	C746.133301,72.567757 745.962219,82.737038 745.016968,92.987282 
	C729.422485,92.987282 713.828003,92.987282 697.998108,92.987282 
	C697.998108,95.600319 697.998169,97.579659 697.998169,99.558990 
	C697.998169,274.546906 698.116394,449.535004 697.893860,624.522644 
	C697.851685,657.703613 699.936157,690.960876 695.947998,724.063110 
	C694.781006,733.749390 693.884216,743.605957 691.289368,752.947144 
	C688.123657,764.343079 683.298157,775.278015 678.408264,786.789368 
z"/>
<path fill="#004870" opacity="1.000000" stroke="none" 
	d="
M745.942505,92.903275 
	C745.962219,82.737038 746.133301,72.567757 745.928223,62.406052 
	C745.844360,58.250225 747.305054,56.930202 751.427490,56.934925 
	C830.093018,57.025097 908.758667,57.055676 987.423889,56.887268 
	C993.080383,56.875156 993.039795,59.717911 993.038391,63.756126 
	C992.992065,199.920898 993.000000,336.085693 993.000000,472.250488 
	C993.000000,532.416321 993.057312,592.582275 992.953857,652.747925 
	C992.931885,665.537720 992.775269,678.357361 991.901978,691.109924 
	C989.123413,731.683411 982.023132,771.434692 968.150513,809.813416 
	C957.678772,838.783569 944.067932,866.135925 925.451782,890.755920 
	C918.175659,900.378540 910.503540,909.862427 901.925232,918.305542 
	C885.151428,934.815002 867.125183,949.920227 846.617493,961.776428 
	C845.202393,962.594604 843.977966,963.742554 842.017090,964.753662 
	C830.301575,969.999146 819.458435,975.784302 808.126282,980.358032 
	C766.129517,997.308350 721.971558,1002.568542 677.138855,1002.676147 
	C648.042236,1002.746033 619.034363,1000.416504 590.347412,995.001465 
	C561.556702,989.566711 533.659485,981.281189 507.234375,968.567871 
	C465.189423,948.339722 430.057953,919.325562 400.411896,883.461243 
	C385.823914,865.813538 372.905670,847.026855 361.517822,827.175232 
	C370.676575,820.122437 379.769592,812.982239 389.006226,806.032959 
	C418.980377,783.481262 449.015106,761.010071 479.010406,738.486328 
	C494.067322,727.179993 509.084503,715.820618 524.141602,704.514465 
	C524.914307,703.934265 525.894531,703.630432 527.116272,703.032288 
	C529.782959,707.439880 532.411743,711.763306 535.019653,716.099426 
	C543.415894,730.059509 553.166077,743.083740 564.956726,754.246155 
	C582.844788,771.181091 603.155884,784.303528 627.782898,789.382568 
	C641.782898,792.270020 655.760498,791.326721 669.680176,788.620911 
	C672.597961,788.053711 675.499329,787.402039 679.154968,786.599121 
	C692.650391,782.603882 703.952698,776.322388 713.786438,767.271057 
	C729.074463,753.199341 735.719360,734.786804 740.115173,715.298035 
	C745.632690,690.836121 746.739136,665.892273 746.758728,640.961365 
	C746.900818,460.013794 746.837585,279.066071 746.798218,98.118385 
	C746.797852,96.379959 746.240051,94.641640 745.942505,92.903275 
z"/>
<path fill="#FED601" opacity="1.000000" stroke="none" 
	d="
M745.479736,92.945282 
	C746.240051,94.641640 746.797852,96.379959 746.798218,98.118385 
	C746.837585,279.066071 746.900818,460.013794 746.758728,640.961365 
	C746.739136,665.892273 745.632690,690.836121 740.115173,715.298035 
	C735.719360,734.786804 729.074463,753.199341 713.786438,767.271057 
	C703.952698,776.322388 692.650391,782.603882 679.546082,786.410645 
	C683.298157,775.278015 688.123657,764.343079 691.289368,752.947144 
	C693.884216,743.605957 694.781006,733.749390 695.947998,724.063110 
	C699.936157,690.960876 697.851685,657.703613 697.893860,624.522644 
	C698.116394,449.535004 697.998169,274.546906 697.998169,99.558990 
	C697.998169,97.579659 697.998108,95.600319 697.998108,92.987282 
	C713.828003,92.987282 729.422485,92.987282 745.479736,92.945282 
z"/>
<path fill="#FFD700" opacity="1.000000" stroke="none" 
	d="
M361.194214,827.151917 
	C372.905670,847.026855 385.823914,865.813538 400.411896,883.461243 
	C430.057953,919.325562 465.189423,948.339722 507.234375,968.567871 
	C533.659485,981.281189 561.556702,989.566711 590.347412,995.001465 
	C619.034363,1000.416504 648.042236,1002.746033 677.138855,1002.676147 
	C721.971558,1002.568542 766.129517,997.308350 808.126282,980.358032 
	C819.458435,975.784302 830.301575,969.999146 841.722473,964.920288 
	C832.556091,972.708008 823.316833,980.731079 813.458008,987.902405 
	C793.293945,1002.569946 771.126953,1013.587585 747.384766,1021.080383 
	C732.770325,1025.692505 717.899597,1029.757446 702.879944,1032.737915 
	C690.573547,1035.179688 677.899475,1035.940308 665.347412,1036.924927 
	C652.356567,1037.943970 639.304382,1039.046631 626.300903,1038.825684 
	C608.845520,1038.529053 591.337769,1037.687988 573.983887,1035.844116 
	C542.791138,1032.529663 512.183411,1025.902832 482.800140,1014.819458 
	C455.218597,1004.415710 429.316528,990.557495 406.447418,971.768188 
	C393.225677,960.905151 379.847015,949.929565 368.347839,937.351013 
	C354.285248,921.968323 341.852051,905.054260 329.245087,888.400574 
	C323.213470,880.432800 318.405396,871.538818 312.840363,862.743835 
	C328.854065,850.869385 344.862305,838.999023 361.194214,827.151917 
z"/>
</svg>